<?xml version="1.0" standalone="no"?>
<!DOCTYPE svg PUBLIC "-//W3C//DTD SVG 20010904//EN"
 "http://www.w3.org/TR/2001/REC-SVG-20010904/DTD/svg10.dtd">
<svg version="1.0" xmlns="http://www.w3.org/2000/svg"
 width="700.000000pt" height="700.000000pt" viewBox="0 0 700.000000 700.000000"
 preserveAspectRatio="xMidYMid meet">
<metadata>
Created by potrace 1.11, written by Peter Selinger 2001-2013
</metadata>
<g transform="translate(0.000000,700.000000) scale(0.100000,-0.100000)"
fill="#000000" stroke="none">
<path d="M3443 6316 c-34 -15 -49 -36 -58 -82 -6 -34 -7 -275 0 -319 2 -16 6
-53 9 -82 12 -104 39 -136 111 -131 57 4 82 30 90 93 6 52 7 351 0 390 -3 17
-7 44 -10 61 -11 63 -79 97 -142 70z"/>
<path d="M1697 5552 c-33 -20 -43 -52 -27 -84 51 -97 248 -305 353 -372 31
-20 76 -41 101 -48 40 -11 48 -10 63 5 41 41 4 141 -102 274 -141 180 -306
274 -388 225z"/>
<path d="M5197 5555 c-81 -28 -181 -110 -283 -230 -69 -81 -93 -124 -100 -177
-5 -38 -3 -48 15 -64 58 -55 150 -13 305 140 149 146 214 241 201 293 -10 42
-77 60 -138 38z"/>
<path d="M3457 5214 c-1 -1 -40 -4 -87 -7 -112 -8 -148 -14 -250 -44 -183 -52
-355 -157 -500 -303 -176 -177 -293 -387 -361 -650 -17 -66 -23 -115 -23 -215
-1 -134 2 -163 29 -278 18 -78 82 -259 125 -352 38 -83 122 -260 200 -420 150
-310 185 -440 206 -760 3 -49 5 -139 5 -200 1 -148 -7 -179 -56 -240 -43 -54
-55 -78 -55 -114 0 -57 60 -76 276 -88 169 -9 1047 -9 1162 0 105 8 156 30
160 71 6 46 -6 91 -35 132 -33 48 -48 140 -47 284 1 111 13 340 19 350 1 3 6
30 9 60 15 124 65 280 151 469 29 64 65 143 80 176 15 33 37 83 50 110 41 89
92 209 111 260 9 28 21 55 24 60 6 9 15 38 21 70 1 6 12 40 24 76 13 36 26 86
31 110 4 24 8 46 9 49 34 142 26 339 -18 486 -82 273 -247 500 -482 665 -128
91 -357 189 -495 213 -19 3 -46 9 -60 12 -24 5 -219 21 -223 18z"/>
<path d="M1201 4020 c-57 -13 -80 -31 -96 -75 -29 -76 -4 -122 80 -144 23 -6
107 -9 200 -7 223 6 275 15 305 53 24 31 26 90 5 120 -16 23 -57 38 -130 48
-70 10 -329 13 -364 5z"/>
<path d="M5537 4024 c-1 -1 -33 -4 -72 -8 -134 -10 -225 -56 -225 -111 0 -47
87 -91 225 -111 37 -5 223 -6 250 0 11 2 40 7 65 11 99 16 133 42 144 107 3
20 -3 35 -22 56 -22 23 -41 31 -102 41 -63 10 -256 21 -263 15z"/>
<path d="M4855 2788 c-57 -45 -63 -108 -17 -188 34 -59 209 -234 295 -294 85
-60 134 -70 170 -34 58 58 -10 186 -198 372 -90 89 -169 151 -202 159 -14 3
-32 -2 -48 -15z"/>
<path d="M2038 2777 c-67 -40 -275 -253 -326 -332 -44 -70 -56 -135 -29 -162
7 -7 30 -16 49 -20 29 -4 47 1 91 26 104 59 273 236 331 345 34 63 34 107 1
141 -32 31 -68 32 -117 2z"/>
<path d="M3487 1484 c-1 -1 -123 -4 -272 -8 -239 -5 -417 -21 -466 -41 -9 -3
-21 -17 -27 -29 -22 -49 -2 -78 71 -102 29 -10 61 -19 72 -20 11 -2 36 -5 55
-8 150 -22 672 -28 1074 -13 276 11 288 14 280 81 -12 109 -57 124 -383 132
-266 7 -402 9 -404 8z"/>
<path d="M3075 1190 c-156 -13 -233 -26 -253 -43 -44 -36 -30 -91 45 -177 22
-25 48 -56 59 -69 47 -59 147 -152 182 -170 63 -32 135 -39 397 -39 274 0 337
7 406 49 78 49 266 267 286 333 20 67 -10 88 -142 101 -44 5 -89 10 -100 12
-40 7 -792 10 -880 3z"/>
</g>
</svg>
